<svg height="512" viewBox="0 0 512 512" width="512" xmlns="http://www.w3.org/2000/svg"><g id="Iran"><path d="m329.58 18.381h-147.142c-90.46 0-164.056 73.587-164.056 164.038v147.159c0 90.451 73.596 164.039 164.056 164.039h147.142c90.451 0 164.039-73.588 164.039-164.039v-147.159c0-90.451-73.588-164.038-164.039-164.038z" fill="#efefef"/><path d="m48.166 150.334h32v14h32v-14h32v14h32v-14h32v14h32v-14h32v14h32v-14h32v14h31.668v-14h32v14h32v-14h32v14h28.783c-9.031-81.973-78.698-145.953-163.037-145.953h-147.142c-84.347 0-154.021 63.98-163.054 145.953h28.781v-14z" fill="#1da03e"/><path d="m463.834 347.666v14.668h-32v-14.668h-32v14.668h-32v-14.668h-31.668v14.668h-32v-14.668h-32v14.668h-32v-14.668h-32v14.668h-32v-14.668h-32v14.668h-32v-14.668h-32v14.668h-32v-14.668h-28.781c9.034 81.971 78.707 145.951 163.054 145.951h147.141c84.338 0 154.004-63.98 163.037-145.951z" fill="#da0000"/><path d="m18.424 329.503v-147.009c0-90.568 73.505-164.072 164.072-164.072h56.945c-44.611 8.96-165.086 43.596-183.337 154.443l-.842 180.796s4.39 73.679 37.005 112.877c-44.438-29.397-73.843-79.751-73.843-137.035z" fill="#fff" opacity=".22"/><path d="m493.578 182.494v147.009c0 90.567-73.506 164.072-164.072 164.072h-147.01c-19.266 0-37.681-3.383-54.916-9.464l148.189-12.672c153.09-21.122 159.006-124.535 159.006-124.535l-.677-179.617s-3.209-105.607-130.45-148.865h25.857c90.567 0 164.073 73.504 164.073 164.072z" fill="#160204" opacity=".13"/><path d="m320.229 236.92c0-12.028-3.358-23.768-9.712-33.95-4.384-7.028-13.636-9.172-20.666-4.785-7.028 4.385-9.171 13.638-4.785 20.666 3.378 5.414 5.163 11.662 5.163 18.069 0 13.803-8.216 25.715-20.01 31.125v-62.674c0-8.284-6.716-15-15-15s-15 6.716-15 15v61.909c-10.95-5.716-18.447-17.176-18.447-30.36 0-6.407 1.785-12.655 5.163-18.069 4.386-7.028 2.243-16.281-4.785-20.666-7.028-4.39-16.282-2.243-20.666 4.785-6.354 10.183-9.712 21.922-9.712 33.95 0 29.973 20.638 55.211 48.447 62.264v7.445c0 8.284 6.716 15 15 15s15-6.716 15-15v-7.084c28.594-6.49 50.01-32.096 50.01-62.625z" fill="#da0000"/></g></svg>