<svg height="512" viewBox="0 0 512 512" width="512" xmlns="http://www.w3.org/2000/svg"><g id="Kuwait"><path d="m329.58 18.381h-147.142c-90.46 0-164.056 73.587-164.056 164.038v147.159c0 90.451 73.596 164.039 164.056 164.039h147.142c90.451 0 164.039-73.588 164.039-164.039v-147.159c0-90.451-73.588-164.038-164.039-164.038z" fill="#efefef"/><path d="m182.438 493.617h147.142c88.557 0 160.937-70.54 163.931-158.38h-475.02c2.995 87.84 75.382 158.38 163.947 158.38z" fill="#c71024"/><path d="m329.58 18.381h-147.142c-88.565 0-160.954 70.541-163.947 158.382h475.02c-2.993-87.841-75.374-158.382-163.931-158.382z" fill="#00763b"/><g><path d="m167.759 176.763-107.197-104.029c-26.204 29.081-42.179 67.551-42.179 109.685v147.159c0 41.749 15.688 79.897 41.467 108.883l107.909-103.224z" fill="#282828"/></g><path d="m18.424 329.503v-147.009c0-90.568 73.505-164.072 164.072-164.072h56.945c-44.611 8.96-165.086 43.596-183.337 154.443l-.842 180.796s4.39 73.679 37.005 112.877c-44.438-29.397-73.843-79.751-73.843-137.035z" fill="#fff" opacity=".22"/><path d="m493.578 182.494v147.009c0 90.567-73.506 164.072-164.072 164.072h-147.01c-19.266 0-37.681-3.383-54.916-9.464l148.189-12.672c153.09-21.122 159.006-124.535 159.006-124.535l-.677-179.617s-3.209-105.607-130.45-148.865h25.857c90.567 0 164.073 73.504 164.073 164.072z" fill="#160204" opacity=".13"/></g></svg>