<svg height="512" viewBox="0 0 512 512" width="512" xmlns="http://www.w3.org/2000/svg"><g id="Turkey"><path d="m329.58 18.381h-147.142c-90.46 0-164.056 73.587-164.056 164.038v147.159c0 90.451 73.596 164.039 164.056 164.039h147.142c90.451 0 164.039-73.588 164.039-164.039v-147.159c0-90.451-73.588-164.038-164.039-164.038z" fill="#dc0917"/><path d="m18.424 329.503v-147.009c0-90.568 73.505-164.072 164.072-164.072h56.945c-44.611 8.96-165.086 43.596-183.337 154.443l-.842 180.796s4.39 73.679 37.005 112.877c-44.438-29.397-73.843-79.751-73.843-137.035z" fill="#fff" opacity=".22"/><path d="m493.578 182.494v147.009c0 90.567-73.506 164.072-164.072 164.072h-147.01c-19.266 0-37.681-3.383-54.916-9.464l148.189-12.672c153.09-21.122 159.006-124.535 159.006-124.535l-.677-179.617s-3.209-105.607-130.45-148.865h25.857c90.567 0 164.073 73.504 164.073 164.072z" fill="#160204" opacity=".13"/><g fill="#efefef"><path d="m297.832 328.229c-18.582 16.771-41.389 25.477-65.795 25.477-53.873 0-97.705-43.832-97.705-97.705 0-53.875 43.832-97.705 97.705-97.705 24.406 0 47.775 9.049 65.801 25.479 2.658 2.336.473 4.99.473 4.99-1.939 2.355-4.6 1.131-4.6 1.131-9.918-4.758-20.566-7.17-31.654-7.17-40.404 0-73.275 32.871-73.275 73.275s32.871 73.275 73.275 73.275c11.086 0 21.734-2.412 31.648-7.168 0 0 2.811-1.287 4.678 1.24 0 0 2.13 2.461-.551 4.881z"/><path d="m328.703 297.965 17.455-23.377 26.959 8.51c1.439.455 3.006-.063 3.887-1.285.885-1.223.885-2.871.002-4.096l-16.652-23.078 16.346-24.107c.842-1.24.797-2.879-.107-4.074-.906-1.193-2.473-1.678-3.895-1.203l-26.707 8.914-17.264-21.746c-.922-1.164-2.479-1.617-3.881-1.131-1.404.486-2.348 1.805-2.354 3.291l-.1 27.459-27 9.012c-1.42.473-2.379 1.795-2.391 3.293-.01 1.494.932 2.83 2.344 3.324l26.729 9.33.33 28.914c.018 1.498.988 2.82 2.414 3.283 0-.001 2.24.97 3.885-1.233z"/></g></g></svg>